<?xml version="1.0" encoding="UTF-8" standalone="no"?>
<!DOCTYPE svg PUBLIC "-//W3C//DTD SVG 1.1//EN" "http://www.w3.org/Graphics/SVG/1.1/DTD/svg11.dtd">
<!-- Generiert durch Microsoft Visio, SVG Export regions.svg Zeichenblatt-1 -->
<svg xmlns="http://www.w3.org/2000/svg" xmlns:xlink="http://www.w3.org/1999/xlink" xmlns:ev="http://www.w3.org/2001/xml-events"
		xmlns:v="http://schemas.microsoft.com/visio/2003/SVGExtensions/" width="4.83325in" height="0.797818in"
		viewBox="0 0 347.994 57.4429" xml:space="preserve" color-interpolation-filters="sRGB" class="st5">
	<v:documentProperties v:langID="1031" v:metric="true" v:viewMarkup="false"/>

	<style type="text/css">
	<![CDATA[
		.st1 {fill:#9dbb61;stroke:#9dbb61;stroke-linecap:round;stroke-linejoin:round;stroke-width:0.75}
		.st2 {fill:#ffc000;stroke:#ffc000;stroke-linecap:round;stroke-linejoin:round;stroke-width:0.75}
		.st3 {fill:#4bacc6;stroke:#4bacc6;stroke-linecap:round;stroke-linejoin:round;stroke-width:0.75}
		.st4 {fill:#c05046;stroke:#c05046;stroke-linecap:round;stroke-linejoin:round;stroke-width:0.75}
		.st5 {fill:none;fill-rule:evenodd;font-size:12px;overflow:visible;stroke-linecap:square;stroke-miterlimit:3}
	]]>
	</style>

	<g v:mID="0" v:index="1" v:groupContext="foregroundPage">
		<title>Zeichenblatt-1</title>
		<v:pageProperties v:drawingScale="0.0393701" v:pageScale="0.0393701" v:drawingUnits="24" v:shadowOffsetX="8.50394"
				v:shadowOffsetY="-8.50394"/>
		<g id="shape5-1" v:mID="5" v:groupContext="shape" transform="translate(149.194,-42.8947)">
			<title>Tabelle.5</title>
			<rect x="0" y="43.2697" width="14.1732" height="14.1732" class="st1"/>
		</g>
		<g id="shape6-3" v:mID="6" v:groupContext="shape" transform="translate(14.5482,-14.5482)">
			<title>Tabelle.6</title>
			<rect x="0" y="43.2697" width="14.1732" height="14.1732" class="st2"/>
		</g>
		<g id="shape7-5" v:mID="7" v:groupContext="shape" transform="translate(28.7215,-0.375)">
			<title>Tabelle.7</title>
			<rect x="0" y="43.2697" width="14.1732" height="14.1732" class="st2"/>
		</g>
		<g id="shape8-7" v:mID="8" v:groupContext="shape" transform="translate(0.375,-28.7215)">
			<title>Tabelle.8</title>
			<rect x="0" y="43.2697" width="14.1732" height="14.1732" class="st2"/>
		</g>
		<g id="shape9-9" v:mID="9" v:groupContext="shape" transform="translate(28.7215,-28.7215)">
			<title>Tabelle.9</title>
			<rect x="0" y="43.2697" width="14.1732" height="14.1732" class="st2"/>
		</g>
		<g id="shape10-11" v:mID="10" v:groupContext="shape" transform="translate(14.5482,-28.7215)">
			<title>Tabelle.10</title>
			<rect x="0" y="43.2697" width="14.1732" height="14.1732" class="st2"/>
		</g>
		<g id="shape11-13" v:mID="11" v:groupContext="shape" transform="translate(42.8947,-28.7215)">
			<title>Tabelle.11</title>
			<rect x="0" y="43.2697" width="14.1732" height="14.1732" class="st2"/>
		</g>
		<g id="shape12-15" v:mID="12" v:groupContext="shape" transform="translate(57.0679,-28.7215)">
			<title>Tabelle.12</title>
			<rect x="0" y="43.2697" width="14.1732" height="14.1732" class="st2"/>
		</g>
		<g id="shape13-17" v:mID="13" v:groupContext="shape" transform="translate(71.2411,-28.7215)">
			<title>Tabelle.13</title>
			<rect x="0" y="43.2697" width="14.1732" height="14.1732" class="st2"/>
		</g>
		<g id="shape14-19" v:mID="14" v:groupContext="shape" transform="translate(42.8947,-0.375)">
			<title>Tabelle.14</title>
			<rect x="0" y="43.2697" width="14.1732" height="14.1732" class="st2"/>
		</g>
		<g id="shape15-21" v:mID="15" v:groupContext="shape" transform="translate(57.0679,-0.375)">
			<title>Tabelle.15</title>
			<rect x="0" y="43.2697" width="14.1732" height="14.1732" class="st2"/>
		</g>
		<g id="shape16-23" v:mID="16" v:groupContext="shape" transform="translate(28.7215,-14.5482)">
			<title>Tabelle.16</title>
			<rect x="0" y="43.2697" width="14.1732" height="14.1732" class="st2"/>
		</g>
		<g id="shape17-25" v:mID="17" v:groupContext="shape" transform="translate(42.8947,-14.5482)">
			<title>Tabelle.17</title>
			<rect x="0" y="43.2697" width="14.1732" height="14.1732" class="st2"/>
		</g>
		<g id="shape20-27" v:mID="20" v:groupContext="shape" transform="translate(57.0679,-14.5482)">
			<title>Tabelle.20</title>
			<rect x="0" y="43.2697" width="14.1732" height="14.1732" class="st2"/>
		</g>
		<g id="shape21-29" v:mID="21" v:groupContext="shape" transform="translate(14.5482,-42.8947)">
			<title>Tabelle.21</title>
			<rect x="0" y="43.2697" width="14.1732" height="14.1732" class="st2"/>
		</g>
		<g id="shape22-31" v:mID="22" v:groupContext="shape" transform="translate(28.7215,-42.8947)">
			<title>Tabelle.22</title>
			<rect x="0" y="43.2697" width="14.1732" height="14.1732" class="st2"/>
		</g>
		<g id="shape23-33" v:mID="23" v:groupContext="shape" transform="translate(42.8947,-42.8947)">
			<title>Tabelle.23</title>
			<rect x="0" y="43.2697" width="14.1732" height="14.1732" class="st2"/>
		</g>
		<g id="shape24-35" v:mID="24" v:groupContext="shape" transform="translate(57.0679,-42.8947)">
			<title>Tabelle.24</title>
			<rect x="0" y="43.2697" width="14.1732" height="14.1732" class="st2"/>
		</g>
		<g id="shape25-37" v:mID="25" v:groupContext="shape" transform="translate(135.021,-42.8947)">
			<title>Tabelle.25</title>
			<rect x="0" y="43.2697" width="14.1732" height="14.1732" class="st1"/>
		</g>
		<g id="shape26-39" v:mID="26" v:groupContext="shape" transform="translate(120.847,-28.7215)">
			<title>Tabelle.26</title>
			<rect x="0" y="43.2697" width="14.1732" height="14.1732" class="st1"/>
		</g>
		<g id="shape27-41" v:mID="27" v:groupContext="shape" transform="translate(135.021,-28.7215)">
			<title>Tabelle.27</title>
			<rect x="0" y="43.2697" width="14.1732" height="14.1732" class="st1"/>
		</g>
		<g id="shape28-43" v:mID="28" v:groupContext="shape" transform="translate(106.674,-0.375)">
			<title>Tabelle.28</title>
			<rect x="0" y="43.2697" width="14.1732" height="14.1732" class="st1"/>
		</g>
		<g id="shape29-45" v:mID="29" v:groupContext="shape" transform="translate(120.847,-0.375)">
			<title>Tabelle.29</title>
			<rect x="0" y="43.2697" width="14.1732" height="14.1732" class="st1"/>
		</g>
		<g id="shape30-47" v:mID="30" v:groupContext="shape" transform="translate(120.847,-14.5482)">
			<title>Tabelle.30</title>
			<rect x="0" y="43.2697" width="14.1732" height="14.1732" class="st1"/>
		</g>
		<g id="shape31-49" v:mID="31" v:groupContext="shape" transform="translate(106.674,-14.5482)">
			<title>Tabelle.31</title>
			<rect x="0" y="43.2697" width="14.1732" height="14.1732" class="st1"/>
		</g>
		<g id="shape33-51" v:mID="33" v:groupContext="shape" transform="translate(198.8,-42.8947)">
			<title>Tabelle.33</title>
			<rect x="0" y="43.2697" width="14.1732" height="14.1732" class="st3"/>
		</g>
		<g id="shape34-53" v:mID="34" v:groupContext="shape" transform="translate(198.8,-28.7215)">
			<title>Tabelle.34</title>
			<rect x="0" y="43.2697" width="14.1732" height="14.1732" class="st3"/>
		</g>
		<g id="shape35-55" v:mID="35" v:groupContext="shape" transform="translate(198.8,-0.375)">
			<title>Tabelle.35</title>
			<rect x="0" y="43.2697" width="14.1732" height="14.1732" class="st3"/>
		</g>
		<g id="shape36-57" v:mID="36" v:groupContext="shape" transform="translate(198.8,-14.5482)">
			<title>Tabelle.36</title>
			<rect x="0" y="43.2697" width="14.1732" height="14.1732" class="st3"/>
		</g>
		<g id="shape37-59" v:mID="37" v:groupContext="shape" transform="translate(212.973,-42.8947)">
			<title>Tabelle.37</title>
			<rect x="0" y="43.2697" width="14.1732" height="14.1732" class="st3"/>
		</g>
		<g id="shape38-61" v:mID="38" v:groupContext="shape" transform="translate(227.147,-42.8947)">
			<title>Tabelle.38</title>
			<rect x="0" y="43.2697" width="14.1732" height="14.1732" class="st3"/>
		</g>
		<g id="shape39-63" v:mID="39" v:groupContext="shape" transform="translate(241.32,-42.8947)">
			<title>Tabelle.39</title>
			<rect x="0" y="43.2697" width="14.1732" height="14.1732" class="st3"/>
		</g>
		<g id="shape40-65" v:mID="40" v:groupContext="shape" transform="translate(227.147,-0.375)">
			<title>Tabelle.40</title>
			<rect x="0" y="43.2697" width="14.1732" height="14.1732" class="st3"/>
		</g>
		<g id="shape41-67" v:mID="41" v:groupContext="shape" transform="translate(212.973,-0.375)">
			<title>Tabelle.41</title>
			<rect x="0" y="43.2697" width="14.1732" height="14.1732" class="st3"/>
		</g>
		<g id="shape42-69" v:mID="42" v:groupContext="shape" transform="translate(241.32,-0.375)">
			<title>Tabelle.42</title>
			<rect x="0" y="43.2697" width="14.1732" height="14.1732" class="st3"/>
		</g>
		<g id="shape43-71" v:mID="43" v:groupContext="shape" transform="translate(241.32,-14.5482)">
			<title>Tabelle.43</title>
			<rect x="0" y="43.2697" width="14.1732" height="14.1732" class="st3"/>
		</g>
		<g id="shape44-73" v:mID="44" v:groupContext="shape" transform="translate(241.32,-28.7215)">
			<title>Tabelle.44</title>
			<rect x="0" y="43.2697" width="14.1732" height="14.1732" class="st3"/>
		</g>
		<g id="shape45-75" v:mID="45" v:groupContext="shape" transform="translate(290.926,-42.8947)">
			<title>Tabelle.45</title>
			<rect x="0" y="43.2697" width="14.1732" height="14.1732" class="st4"/>
		</g>
		<g id="shape46-77" v:mID="46" v:groupContext="shape" transform="translate(305.099,-42.8947)">
			<title>Tabelle.46</title>
			<rect x="0" y="43.2697" width="14.1732" height="14.1732" class="st4"/>
		</g>
		<g id="shape47-79" v:mID="47" v:groupContext="shape" transform="translate(319.273,-42.8947)">
			<title>Tabelle.47</title>
			<rect x="0" y="43.2697" width="14.1732" height="14.1732" class="st4"/>
		</g>
		<g id="shape48-81" v:mID="48" v:groupContext="shape" transform="translate(333.446,-42.8947)">
			<title>Tabelle.48</title>
			<rect x="0" y="43.2697" width="14.1732" height="14.1732" class="st4"/>
		</g>
		<g id="shape49-83" v:mID="49" v:groupContext="shape" transform="translate(290.926,-0.375)">
			<title>Tabelle.49</title>
			<rect x="0" y="43.2697" width="14.1732" height="14.1732" class="st4"/>
		</g>
		<g id="shape50-85" v:mID="50" v:groupContext="shape" transform="translate(305.099,-0.375)">
			<title>Tabelle.50</title>
			<rect x="0" y="43.2697" width="14.1732" height="14.1732" class="st4"/>
		</g>
		<g id="shape51-87" v:mID="51" v:groupContext="shape" transform="translate(319.273,-0.375)">
			<title>Tabelle.51</title>
			<rect x="0" y="43.2697" width="14.1732" height="14.1732" class="st4"/>
		</g>
		<g id="shape52-89" v:mID="52" v:groupContext="shape" transform="translate(333.446,-0.375)">
			<title>Tabelle.52</title>
			<rect x="0" y="43.2697" width="14.1732" height="14.1732" class="st4"/>
		</g>
		<g id="shape53-91" v:mID="53" v:groupContext="shape" transform="translate(290.926,-28.7215)">
			<title>Tabelle.53</title>
			<rect x="0" y="43.2697" width="14.1732" height="14.1732" class="st4"/>
		</g>
		<g id="shape54-93" v:mID="54" v:groupContext="shape" transform="translate(333.446,-14.5482)">
			<title>Tabelle.54</title>
			<rect x="0" y="43.2697" width="14.1732" height="14.1732" class="st4"/>
		</g>
	</g>
</svg>
